<?xml version="1.0" encoding="utf-8"?>
<!-- Generator: Adobe Illustrator 18.1.1, SVG Export Plug-In . SVG Version: 6.00 Build 0)  -->
<svg version="1.1" xmlns="http://www.w3.org/2000/svg" xmlns:xlink="http://www.w3.org/1999/xlink" x="0px" y="0px"
	 viewBox="0 0 1750 750" enable-background="new 0 0 1750 750" xml:space="preserve">
<g id="Fond">
	<rect x="178.4" y="125" fill="#41363A" width="500" height="500"/>
	<g>
		<path fill="#41363A" d="M1023.4,130v490h-340V130H1023.4 M1028.4,125h-350v500h350V125L1028.4,125z"/>
	</g>
</g>
<g id="SQM">
	<g id="SQ">
		<g>
			<path fill="#FFFFFF" d="M369.6,417.6c0,12.7-3.2,23.7-9.7,33c-6.5,9.3-15.6,16.4-27.2,21.3c-11.6,4.9-25,7.4-40,7.4
				c-4.2,0-9.4-0.3-15.5-0.8c-6.1-0.5-14.2-2-24.3-4.5c-10.1-2.4-20.6-6.1-31.6-10.8v-49.8c10.3,6.3,20.3,11.6,30.2,15.8
				c9.9,4.2,20.5,6.3,31.9,6.3c10.4,0,17.2-1.7,20.3-5.2c3.1-3.5,4.6-6.7,4.6-9.7c0-5.5-2.6-10.1-7.9-13.8
				c-5.3-3.8-12.9-7.6-23-11.6c-11.1-4.7-20.9-9.8-29.3-15.3c-8.4-5.5-15.3-12.4-20.6-20.7c-5.3-8.3-8-18.1-8-29.4
				c0-10.9,2.7-20.8,8.1-29.7c5.4-8.8,13.6-15.9,24.6-21.2c11-5.3,24.5-7.9,40.4-7.9c11.3,0,21.8,1.1,31.4,3.3
				c9.6,2.2,17.6,4.7,23.8,7.4c6.2,2.7,10.5,4.9,12.9,6.4v47.6c-8.3-6-17.6-11.3-27.8-16c-10.2-4.7-21.1-7-32.7-7
				c-7.6,0-13.1,1.5-16.6,4.4c-3.4,2.9-5.1,6.5-5.1,10.8c0,4,1.7,7.5,5.1,10.4c3.4,2.9,9.5,6.5,18.3,10.7
				c15.6,7.3,28.1,13.9,37.5,19.8s16.7,12.6,22,20.3C367,396.6,369.6,406.1,369.6,417.6z"/>
			<path fill="#FFFFFF" d="M637.1,491.2l-42.9,39.1c-16.9-3.7-33.6-8.7-50.1-15c-16.5-6.3-33.1-14-49.8-23.2
				c-13-7.1-22.8-13.9-29.3-20.4c-11.3-4-22.1-10.2-32.2-18.7c-10.2-8.4-18.5-19.3-25-32.4c-6.5-13.2-9.7-28.4-9.7-45.7
				c0-18.3,4.2-35.3,12.6-51.2c8.4-15.9,21.3-28.7,38.7-38.4c17.4-9.7,38.7-14.6,63.8-14.6c19.3,0,36.4,2.9,51,8.6
				c14.7,5.7,26.8,13.4,36.2,23.1c9.4,9.7,16.5,20.9,21.1,33.4c4.6,12.5,7,25.6,7,39c0,16.4-2.9,31-8.8,43.8
				c-5.9,12.8-13.5,23.4-23,31.9c-9.5,8.5-20.2,15.2-32.1,20.2c10.9,4.9,21.9,9,33,12.2c11,3.3,23.6,4.9,37.8,4.9L637.1,491.2z
				 M566.1,374.9c0-7.6-1.1-14.6-3.4-20.9c-2.2-6.3-5.6-11.8-10.2-16.4c-4.5-4.6-10.1-8.3-16.6-10.8c-6.5-2.6-14.1-3.9-22.7-3.9
				c-16.4,0-29.3,4.8-38.7,14.4c-9.4,9.6-14.1,22.1-14.1,37.6s4.7,28.1,14.1,37.7c9.4,9.6,22.3,14.4,38.6,14.4
				c11.2,0,20.8-2.2,28.7-6.7c7.9-4.4,13.9-10.6,18-18.5C564,394.1,566.1,385.1,566.1,374.9z"/>
		</g>
	</g>
	<g id="M">
		<g>
			<path fill="#41363A" d="M971.4,479.2h-61.2V361.6L855,429.7h-4.8l-55.4-68.1v117.6h-59.5v-203h55.5l62.4,76.2l62.7-76.2h55.5
				V479.2z"/>
		</g>
		<g>
			<path fill="#41363A" d="M1107.8,208.6l-10.7-6.5c-6.7-4.1-11.5-8.2-14.4-12.1c-2.9-4-4.3-8.6-4.3-13.7c0-7.8,2.7-14.1,8.1-18.9
				c5.4-4.9,12.4-7.3,21-7.3c8.2,0,15.8,2.3,22.7,6.9v16c-7.1-6.8-14.8-10.3-23-10.3c-4.6,0-8.4,1.1-11.4,3.2s-4.5,4.9-4.5,8.2
				c0,3,1.1,5.7,3.3,8.3c2.2,2.6,5.7,5.3,10.5,8.1l10.8,6.4c12,7.2,18.1,16.4,18.1,27.5c0,7.9-2.7,14.3-8,19.3
				c-5.3,4.9-12.2,7.4-20.7,7.4c-9.8,0-18.6-3-26.6-9v-18c7.6,9.7,16.5,14.5,26.5,14.5c4.4,0,8.1-1.2,11.1-3.7
				c2.9-2.5,4.4-5.6,4.4-9.3C1120.8,219.7,1116.4,214,1107.8,208.6z"/>
			<path fill="#41363A" d="M1154.5,157.6c2.1,0,3.9,0.7,5.4,2.2c1.5,1.5,2.3,3.3,2.3,5.4c0,2.1-0.8,3.9-2.3,5.4
				c-1.5,1.5-3.3,2.3-5.4,2.3c-2,0-3.7-0.8-5.2-2.3c-1.5-1.5-2.3-3.3-2.3-5.3c0-2,0.8-3.7,2.3-5.3
				C1150.8,158.4,1152.5,157.6,1154.5,157.6z M1148.1,185h12.9v65h-12.9V185z"/>
			<path fill="#41363A" d="M1232.9,202.8V250h-12.9v-36.2c0-7.2-1-12.2-2.9-15.1c-1.9-2.9-5.3-4.3-10.1-4.3c-2.7,0-5.1,0.6-7.4,1.8
				c-2.2,1.2-4.8,3.4-7.7,6.5V250H1179v-65h12.9v8.6c6.5-6.5,13-9.8,19.2-9.8c8.2,0,14.6,3.9,19.2,11.7c6.9-7.9,14.1-11.9,21.6-11.9
				c6.3,0,11.5,2.3,15.6,6.9c4.1,4.6,6.1,11.7,6.1,21.1V250h-12.9v-38.5c0-5.4-1.1-9.6-3.3-12.4c-2.2-2.9-5.4-4.3-9.5-4.3
				C1242.5,194.7,1237.5,197.4,1232.9,202.8z"/>
			<path fill="#41363A" d="M1290.3,283.2V185h22.5c11.5,0,20.5,2.9,26.9,8.6c6.4,5.7,9.6,13.8,9.6,24.1c0,9.8-3,17.8-9.1,24
				c-6,6.3-13.7,9.4-23.1,9.4c-4.1,0-8.7-0.9-13.8-2.8v34.8H1290.3z M1312.6,197h-9.1v40c3.9,2,8.1,3,12.4,3c6,0,10.9-2.1,14.8-6.3
				c3.8-4.2,5.7-9.6,5.7-16.2c0-4.2-0.9-8-2.7-11.2c-1.8-3.3-4.3-5.6-7.4-7.1C1323.2,197.7,1318.6,197,1312.6,197z"/>
			<path fill="#41363A" d="M1363.8,151.3h12.9V250h-12.9V151.3z"/>
			<path fill="#41363A" d="M1450.7,218.6H1405c0.3,6.2,2.4,11.2,6.3,14.8c3.8,3.7,8.8,5.5,14.9,5.5c8.5,0,16.3-2.6,23.5-7.9v12.6
				c-4,2.6-7.9,4.5-11.8,5.7s-8.4,1.7-13.7,1.7c-7.2,0-13-1.5-17.4-4.5c-4.4-3-8-7-10.6-12c-2.7-5-4-10.8-4-17.4
				c0-9.9,2.8-17.9,8.4-24.1c5.6-6.2,12.9-9.3,21.8-9.3c8.6,0,15.5,3,20.6,9c5.1,6,7.7,14.1,7.7,24.2V218.6z M1405.2,210.9h32.7
				c-0.3-5.1-1.9-9.1-4.6-11.9c-2.7-2.8-6.4-4.2-11-4.2c-4.6,0-8.4,1.4-11.3,4.2C1408.1,201.8,1406.1,205.8,1405.2,210.9z"/>
		</g>
		<g>
			<path fill="#41363A" d="M1194.6,432.2l-20.9,19c-8.2-1.8-16.3-4.2-24.4-7.3c-8-3.1-16.1-6.8-24.2-11.3
				c-6.3-3.5-11.1-6.8-14.2-9.9c-5.5-1.9-10.7-5-15.7-9.1c-4.9-4.1-9-9.4-12.1-15.8c-3.2-6.4-4.7-13.8-4.7-22.2
				c0-8.9,2-17.2,6.1-24.9c4.1-7.7,10.4-13.9,18.8-18.7c8.5-4.7,18.8-7.1,31-7.1c9.4,0,17.7,1.4,24.8,4.2c7.1,2.8,13,6.5,17.6,11.3
				c4.6,4.7,8,10.1,10.3,16.2c2.3,6.1,3.4,12.4,3.4,19c0,8-1.4,15.1-4.3,21.3c-2.8,6.2-6.6,11.4-11.2,15.5
				c-4.6,4.1-9.8,7.4-15.6,9.8c5.3,2.4,10.7,4.4,16,5.9c5.4,1.6,11.5,2.4,18.4,2.4L1194.6,432.2z M1160,375.6
				c0-3.7-0.5-7.1-1.6-10.1c-1.1-3.1-2.7-5.7-4.9-8c-2.2-2.3-4.9-4-8.1-5.3c-3.2-1.3-6.9-1.9-11-1.9c-8,0-14.2,2.3-18.8,7
				c-4.6,4.7-6.8,10.8-6.8,18.3s2.3,13.7,6.9,18.3c4.6,4.7,10.8,7,18.8,7c5.5,0,10.1-1.1,14-3.2c3.8-2.2,6.8-5.2,8.8-9
				C1159,385,1160,380.6,1160,375.6z"/>
			<path fill="#41363A" d="M1281,425.1h-25.6v-10.3c-3.6,3.9-7.4,6.8-11.4,8.7c-4,1.9-8.7,2.9-14.3,2.9c-10.9,0-18-3.2-21.2-9.6
				c-3.2-6.4-4.8-13.6-4.8-21.6v-42.6h25.6v39.2c0,3.9,0.7,7.4,2,10.4c1.3,3,4.2,4.5,8.5,4.5c3.8,0,6.7-1.1,8.9-3.2
				c2.2-2.1,4.4-4.9,6.7-8.2v-42.6h25.6V425.1z"/>
			<path fill="#41363A" d="M1377.5,388.7c0,7.2-1.6,13.7-4.7,19.3c-3.1,5.7-7.8,10.1-14.1,13.4c-6.2,3.3-13.9,4.9-22.8,4.9
				c-9,0-16.6-1.6-22.8-4.9c-6.2-3.3-10.9-7.7-14-13.4c-3.1-5.6-4.7-12.1-4.7-19.3c0-5.5,0.9-10.4,2.6-14.9
				c1.7-4.5,4.4-8.4,7.9-11.9c3.5-3.4,7.9-6.1,13.1-7.9c5.2-1.9,11.2-2.8,17.9-2.8c6.8,0,12.9,0.9,18.1,2.8c5.2,1.9,9.6,4.5,13,7.9
				c3.4,3.4,6,7.3,7.8,11.8C1376.6,378.3,1377.5,383.3,1377.5,388.7z M1350.5,388.7c0-5.7-1.2-10.2-3.7-13.5
				c-2.5-3.3-6.1-4.9-10.9-4.9c-4.7,0-8.3,1.6-10.8,4.9c-2.5,3.3-3.7,7.8-3.7,13.5c0,5.7,1.3,10.2,3.8,13.5c2.5,3.3,6.1,5,10.8,5
				c4.7,0,8.4-1.6,10.9-4.9C1349.3,399,1350.5,394.5,1350.5,388.7z"/>
			<path fill="#41363A" d="M1448,420.9c-2.7,1.3-6.3,2.5-11,3.7c-4.7,1.2-9.2,1.8-13.4,1.8c-18.5,0-27.7-9-27.7-27.1v-28.9h-11.6
				v-4.5l34.4-35h2.9v21.7h24.5v17.8h-24.5v23.2c0,2.7,0.2,4.9,0.5,6.6c0.3,1.7,1.3,3.1,2.8,4.2c1.5,1.1,3.9,1.7,7,1.7
				c4.1,0,9.4-1.7,16.1-5.1V420.9z"/>
			<path fill="#41363A" d="M1533.6,395h-51.1c1,4.4,3.4,8,7.3,10.8c3.9,2.8,8.3,4.2,13.2,4.2c8.6,0,18.2-2.4,28.6-7.3v15.9
				c-3.8,1.9-8.3,3.7-13.6,5.3c-5.3,1.6-12.1,2.4-20.4,2.4c-8.9,0-16.5-1.7-22.8-5c-6.3-3.3-11-7.8-14.1-13.5
				c-3.1-5.7-4.7-12.2-4.7-19.4c0-7.1,1.6-13.5,4.7-19.1c3.1-5.6,7.8-10,14.1-13.2c6.3-3.2,13.9-4.8,22.8-4.8
				c5.9,0,11.6,1.3,17.1,3.8c5.5,2.5,10,6.7,13.5,12.5c3.5,5.8,5.3,13.2,5.3,22.3V395z M1509.6,382.3c0-4.7-1.2-8.4-3.5-11.1
				c-2.3-2.8-5.6-4.2-9.9-4.2c-4.3,0-7.7,1.4-10.4,4.2c-2.6,2.8-4,6.5-4,11.1H1509.6z"/>
		</g>
		<g>
			<path fill="#41363A" d="M1158.2,500.1h13.4v100h-14.4v-77.8l-30.8,38.7h-2.6l-31.1-38.7v77.8h-14.3v-100h13.6l33.2,41.1
				L1158.2,500.1z"/>
			<path fill="#41363A" d="M1232.7,560.6v28c0,2.2,0.8,3.4,2.3,3.4c1.6,0,4-1.2,7.4-3.5v7.9c-3,1.9-5.3,3.2-7.1,3.9
				c-1.8,0.7-3.7,1-5.6,1c-5.6,0-8.9-2.2-9.9-6.6c-5.5,4.3-11.4,6.4-17.7,6.4c-4.6,0-8.4-1.5-11.5-4.5c-3.1-3-4.6-6.8-4.6-11.4
				c0-4.2,1.5-7.9,4.5-11.1c3-3.3,7.2-5.9,12.7-7.8l16.7-5.7v-3.5c0-7.9-4-11.9-11.9-11.9c-7.1,0-14,3.7-20.8,11v-14.2
				c5.1-6,12.3-9,21.8-9c7.1,0,12.8,1.9,17.1,5.6c1.4,1.2,2.7,2.8,3.9,4.8c1.1,2,1.9,4,2.2,5.9
				C1232.6,551.3,1232.7,555,1232.7,560.6z M1219.9,587.1v-19.5l-8.7,3.4c-4.4,1.8-7.6,3.5-9.4,5.3c-1.8,1.8-2.8,4-2.8,6.7
				c0,2.7,0.9,4.9,2.6,6.7c1.7,1.7,4,2.6,6.8,2.6C1212.5,592.2,1216.4,590.5,1219.9,587.1z"/>
			<path fill="#41363A" d="M1267,534.3v8.4c5.8-6.4,12.4-9.7,19.8-9.7c4.1,0,7.9,1.1,11.5,3.2c3.5,2.1,6.2,5,8.1,8.7
				c1.8,3.7,2.8,9.6,2.8,17.6v37.7h-13v-37.5c0-6.7-1-11.5-3.1-14.4c-2.1-2.9-5.5-4.3-10.3-4.3c-6.2,0-11.4,3.1-15.7,9.2v47h-13.3
				v-65.9H1267z"/>
			<path fill="#41363A" d="M1368.6,560.6v28c0,2.2,0.8,3.4,2.3,3.4c1.6,0,4-1.2,7.4-3.5v7.9c-3,1.9-5.3,3.2-7.1,3.9
				c-1.8,0.7-3.7,1-5.6,1c-5.6,0-8.9-2.2-9.9-6.6c-5.5,4.3-11.4,6.4-17.7,6.4c-4.6,0-8.4-1.5-11.5-4.5c-3.1-3-4.6-6.8-4.6-11.4
				c0-4.2,1.5-7.9,4.5-11.1c3-3.3,7.2-5.9,12.7-7.8l16.7-5.7v-3.5c0-7.9-4-11.9-11.9-11.9c-7.1,0-14,3.7-20.8,11v-14.2
				c5.1-6,12.3-9,21.8-9c7.1,0,12.8,1.9,17.1,5.6c1.4,1.2,2.7,2.8,3.9,4.8c1.1,2,1.9,4,2.2,5.9
				C1368.5,551.3,1368.6,555,1368.6,560.6z M1355.8,587.1v-19.5l-8.7,3.4c-4.4,1.8-7.6,3.5-9.4,5.3c-1.8,1.8-2.8,4-2.8,6.7
				c0,2.7,0.9,4.9,2.6,6.7c1.7,1.7,4,2.6,6.8,2.6C1348.5,592.2,1352.3,590.5,1355.8,587.1z"/>
			<path fill="#41363A" d="M1386.5,557.1c0-7,2.6-12.6,7.7-16.6c5.1-4.1,12.1-6.1,21-6.1h27.1v10.2H1429c2.6,2.6,4.4,5,5.4,7.2
				c1,2.1,1.5,4.6,1.5,7.4c0,3.4-1,6.8-2.9,10.1c-2,3.3-4.5,5.9-7.6,7.6c-3.1,1.8-8.1,3.2-15.1,4.2c-4.9,0.7-7.4,2.4-7.4,5.1
				c0,1.5,0.9,2.8,2.8,3.8c1.8,1,5.2,2,10,3c8.1,1.8,13.3,3.2,15.6,4.2c2.3,1,4.4,2.4,6.3,4.3c3.2,3.2,4.7,7.1,4.7,11.9
				c0,6.3-2.8,11.2-8.3,15c-5.6,3.7-13,5.6-22.3,5.6c-9.4,0-16.9-1.9-22.5-5.6c-5.6-3.7-8.4-8.8-8.4-15.1c0-8.9,5.5-14.7,16.5-17.3
				c-4.4-2.8-6.6-5.6-6.6-8.4c0-2.1,0.9-4,2.8-5.7c1.9-1.7,4.4-3,7.6-3.8C1391.3,573.6,1386.5,566.7,1386.5,557.1z M1407.9,603.2
				c-4.4,0-8,0.9-10.8,2.8c-2.8,1.9-4.2,4.2-4.2,7.2c0,6.8,6.1,10.2,18.3,10.2c5.8,0,10.3-0.8,13.4-2.5c3.2-1.7,4.8-4.1,4.8-7.2
				c0-3.1-2-5.5-6-7.5C1419.4,604.2,1414.2,603.2,1407.9,603.2z M1411,545.6c-3.5,0-6.5,1.2-9,3.6c-2.5,2.4-3.7,5.3-3.7,8.6
				c0,3.4,1.2,6.2,3.7,8.4c2.4,2.2,5.5,3.3,9.2,3.3c3.7,0,6.7-1.1,9.2-3.4c2.5-2.3,3.7-5.1,3.7-8.5c0-3.4-1.2-6.3-3.7-8.6
				C1417.8,546.7,1414.7,545.6,1411,545.6z"/>
			<path fill="#41363A" d="M1508.6,568.4h-46.3c0.3,6.3,2.4,11.3,6.3,15c3.9,3.7,8.9,5.6,15.1,5.6c8.6,0,16.5-2.7,23.8-8v12.7
				c-4,2.7-8,4.6-11.9,5.7c-3.9,1.1-8.6,1.7-13.9,1.7c-7.3,0-13.1-1.5-17.6-4.5c-4.5-3-8.1-7.1-10.8-12.1c-2.7-5.1-4-11-4-17.7
				c0-10,2.8-18.2,8.5-24.5c5.7-6.3,13.1-9.4,22.1-9.4c8.7,0,15.7,3.1,20.9,9.2c5.2,6.1,7.8,14.3,7.8,24.6V568.4z M1462.5,560.6
				h33.2c-0.3-5.2-1.9-9.2-4.7-12c-2.8-2.8-6.5-4.2-11.2-4.2c-4.7,0-8.5,1.4-11.5,4.2C1465.4,551.4,1463.4,555.4,1462.5,560.6z"/>
			<path fill="#41363A" d="M1536.6,534.3v15.1l0.7-1.1c6.3-10.2,12.6-15.3,18.9-15.3c4.9,0,10,2.5,15.4,7.4l-6.9,11.5
				c-4.5-4.3-8.7-6.4-12.6-6.4c-4.2,0-7.8,2-10.9,6s-4.6,8.8-4.6,14.2v34.4h-13.1v-65.9H1536.6z"/>
		</g>
	</g>
</g>
</svg>
